<?xml version="1.0" encoding="UTF-8"?>
<svg id="Layer_2" data-name="Layer 2" xmlns="http://www.w3.org/2000/svg" viewBox="0 0 134.95 49.01">
  <defs>
    <style>
      .cls-1 {
        fill: #fff;
      }
    </style>
  </defs>
  <g id="Layer_1-2" data-name="Layer 1">
    <g>
      <path class="cls-1" d="M11.62,22.98c-1.65,0-3.18-.29-4.59-.88s-2.63-1.4-3.69-2.45c-1.05-1.04-1.88-2.26-2.46-3.66-.59-1.39-.88-2.89-.88-4.5s.29-3.11.88-4.5c.59-1.39,1.41-2.61,2.46-3.66,1.06-1.04,2.29-1.86,3.69-2.45,1.4-.59,2.93-.88,4.59-.88,1.3,0,2.57.22,3.8.67,1.23.45,2.33,1.09,3.31,1.94.98.85,1.73,1.88,2.25,3.1l-4.93,2.74c-.46-.83-1.03-1.49-1.73-1.99-.7-.5-1.69-.75-2.97-.75-.78,0-1.49.14-2.12.42-.63.28-1.17.68-1.63,1.19-.46.51-.81,1.12-1.04,1.83s-.36,1.49-.36,2.33.12,1.63.36,2.33.58,1.32,1.03,1.83c.45.51.99.91,1.63,1.19.64.28,1.35.42,2.14.42,1.28,0,2.29-.26,3-.77.72-.51,1.28-1.17,1.7-1.97l4.93,2.74c-.52,1.2-1.27,2.22-2.25,3.08-.98.86-2.08,1.51-3.31,1.96-1.23.45-2.5.67-3.8.67Z"/>
      <path class="cls-1" d="M28.66,22.49h-5.88v-9.04c0-1.46.28-2.77.85-3.95s1.42-2.11,2.58-2.81,2.61-1.04,4.37-1.04c.57,0,1.13.05,1.68.15.55.1,1.04.23,1.45.41v5.65c-.39-.22-.82-.38-1.27-.49s-.89-.16-1.31-.16c-.76,0-1.37.21-1.81.64-.45.42-.67,1.03-.67,1.81v8.84Z"/>
      <path class="cls-1" d="M44.32,22.94c-1.74,0-3.3-.36-4.68-1.09-1.38-.73-2.47-1.75-3.26-3.07-.79-1.32-1.19-2.87-1.19-4.65,0-1.57.36-3,1.09-4.31.73-1.31,1.75-2.35,3.05-3.13s2.82-1.18,4.54-1.18,3.3.39,4.54,1.18,2.18,1.81,2.82,3.08c.64,1.27.96,2.64.96,4.1v1.47h-12.27l.82-1.04c0,.74.15,1.39.44,1.94.29.55.7.98,1.22,1.27.52.29,1.14.44,1.86.44.78,0,1.47-.2,2.07-.59s1.04-.9,1.32-1.53l4.5,2.25c-.7,1.52-1.72,2.71-3.07,3.57-1.35.86-2.94,1.29-4.76,1.29ZM41.09,12.3h5.25c-.09-.3-.25-.59-.47-.87-.23-.27-.52-.49-.87-.65-.35-.16-.75-.24-1.21-.24s-.87.08-1.24.24c-.37.16-.67.38-.91.64-.24.26-.42.56-.55.88Z"/>
      <path class="cls-1" d="M61.42,23.01c-.65,0-1.32-.14-1.99-.42-.67-.28-1.27-.71-1.78-1.29-.51-.58-.88-1.31-1.09-2.2l-3.07-12.92h5.48l2.68,11.85c-.02-.13-.07-.23-.13-.29-.06-.07-.12-.1-.16-.1s-.1.03-.16.1c-.07.06-.12.16-.16.29l2.19-8.45c.35-1.31.9-2.29,1.67-2.94.76-.65,1.71-.98,2.84-.98s2.1.32,2.84.96c.74.64,1.27,1.6,1.6,2.89l2.19,8.52c-.02-.11-.07-.2-.15-.26-.08-.07-.14-.1-.18-.1-.02,0-.07.03-.13.1-.07.07-.12.15-.16.26l2.55-11.85h5.42l-2.87,12.92c-.2.89-.55,1.63-1.08,2.2-.52.58-1.12,1.01-1.79,1.29-.68.28-1.34.42-1.99.42-1.02,0-1.93-.33-2.72-.98-.79-.65-1.35-1.63-1.68-2.94l-2.25-8.81c.04.15.11.26.2.33s.15.1.2.1.11-.03.21-.1.16-.16.18-.29l-2.22,8.78c-.33,1.31-.89,2.29-1.7,2.94-.81.65-1.72.98-2.74.98Z"/>
      <path class="cls-1" d="M11.62,48.98c-1.65,0-3.18-.29-4.59-.88s-2.63-1.4-3.69-2.45c-1.05-1.04-1.88-2.26-2.46-3.66-.59-1.39-.88-2.89-.88-4.5s.29-3.11.88-4.5c.59-1.39,1.41-2.61,2.46-3.66,1.06-1.04,2.29-1.86,3.69-2.45,1.4-.59,2.93-.88,4.59-.88,1.3,0,2.57.22,3.8.67,1.23.45,2.33,1.09,3.31,1.94.98.85,1.73,1.88,2.25,3.1l-4.93,2.74c-.46-.83-1.03-1.49-1.73-1.99-.7-.5-1.69-.75-2.97-.75-.78,0-1.49.14-2.12.42-.63.28-1.17.68-1.63,1.19-.46.51-.81,1.12-1.04,1.83s-.36,1.48-.36,2.33.12,1.63.36,2.33.58,1.32,1.03,1.83c.45.51.99.91,1.63,1.19.64.28,1.35.42,2.14.42,1.28,0,2.29-.26,3-.77.72-.51,1.28-1.17,1.7-1.97l4.93,2.74c-.52,1.2-1.27,2.22-2.25,3.08-.98.86-2.08,1.51-3.31,1.96-1.23.45-2.5.67-3.8.67Z"/>
      <path class="cls-1" d="M31.1,48.98c-1.7,0-3.22-.39-4.57-1.17-1.35-.78-2.42-1.83-3.21-3.15-.79-1.32-1.19-2.77-1.19-4.36s.4-3.04,1.19-4.34c.79-1.3,1.87-2.35,3.21-3.13,1.35-.78,2.87-1.17,4.57-1.17s3.22.39,4.58,1.17c1.36.78,2.43,1.83,3.21,3.13.78,1.31,1.17,2.75,1.17,4.34s-.39,3.04-1.17,4.36-1.86,2.37-3.21,3.15c-1.36.78-2.89,1.17-4.58,1.17ZM31.1,43.46c.63,0,1.17-.14,1.63-.42.46-.28.82-.66,1.08-1.14.26-.48.39-1,.39-1.57s-.13-1.12-.39-1.6c-.26-.48-.62-.86-1.08-1.14-.46-.28-1-.42-1.63-.42s-1.15.14-1.62.42c-.47.28-.83.66-1.09,1.14-.26.48-.39,1.01-.39,1.6s.13,1.09.39,1.57c.26.48.62.86,1.09,1.14s1.01.42,1.62.42Z"/>
      <path class="cls-1" d="M51.53,37.39c-.72,0-1.29.17-1.73.52-.44.35-.75.8-.95,1.37-.2.57-.29,1.2-.29,1.89v7.31h-5.88v-8.03c0-1.61.32-3.08.95-4.41s1.6-2.39,2.91-3.18c1.31-.79,2.97-1.19,4.99-1.19s3.69.4,4.99,1.19c1.3.79,2.27,1.86,2.9,3.18s.95,2.8.95,4.41v8.03h-5.87v-7.31c0-.7-.1-1.33-.29-1.89-.2-.57-.51-1.02-.95-1.37-.44-.35-1.01-.52-1.73-.52Z"/>
      <path class="cls-1" d="M72.49,37.39c-.72,0-1.29.17-1.73.52-.44.35-.75.8-.95,1.37-.2.57-.29,1.2-.29,1.89v7.31h-5.88v-8.03c0-1.61.32-3.08.95-4.41s1.6-2.39,2.91-3.18c1.31-.79,2.97-1.19,4.99-1.19s3.69.4,4.99,1.19c1.31.79,2.27,1.86,2.91,3.18.63,1.33.95,2.8.95,4.41v8.03h-5.88v-7.31c0-.7-.1-1.33-.29-1.89-.2-.57-.51-1.02-.95-1.37s-1.01-.52-1.73-.52Z"/>
      <path class="cls-1" d="M93.08,48.94c-1.74,0-3.3-.36-4.68-1.09-1.38-.73-2.47-1.75-3.26-3.07-.79-1.32-1.19-2.87-1.19-4.65,0-1.57.36-3,1.09-4.31.73-1.31,1.75-2.35,3.05-3.13s2.82-1.17,4.54-1.17,3.3.39,4.54,1.17,2.18,1.81,2.82,3.08c.64,1.27.96,2.64.96,4.1v1.47h-12.27l.82-1.04c0,.74.15,1.39.44,1.94.29.55.7.98,1.22,1.27.52.29,1.14.44,1.86.44.78,0,1.47-.2,2.07-.59.6-.39,1.04-.9,1.32-1.53l4.5,2.25c-.7,1.52-1.72,2.71-3.07,3.57-1.35.86-2.94,1.29-4.77,1.29ZM89.85,38.3h5.25c-.09-.3-.24-.59-.47-.87-.23-.27-.52-.49-.87-.65s-.75-.25-1.21-.25-.87.08-1.24.25c-.37.16-.67.38-.91.64-.24.26-.42.56-.55.88Z"/>
      <path class="cls-1" d="M112.21,48.94c-1.26.02-2.44-.2-3.54-.65-1.1-.46-2.05-1.08-2.86-1.88-.81-.79-1.44-1.72-1.89-2.77-.46-1.05-.68-2.17-.68-3.35s.23-2.29.68-3.34c.46-1.06,1.09-1.98,1.89-2.77.8-.79,1.76-1.41,2.86-1.86,1.1-.45,2.28-.66,3.54-.64,1.63.02,3.15.42,4.55,1.19,1.4.77,2.48,2,3.21,3.67l-4.86,2.61c-.26-.57-.64-1.03-1.14-1.4-.5-.37-1.09-.56-1.76-.56-.61,0-1.15.14-1.62.41-.47.27-.83.64-1.09,1.11-.26.47-.39,1-.39,1.58s.13,1.09.39,1.57c.26.48.63.86,1.09,1.14.47.28,1.01.42,1.62.42.67,0,1.26-.19,1.76-.57.5-.38.88-.84,1.14-1.39l4.86,2.61c-.74,1.68-1.81,2.9-3.21,3.67-1.4.77-2.92,1.17-4.55,1.19Z"/>
      <path class="cls-1" d="M134.95,37.06h-14v-4.9h14v4.9ZM131.53,49.01c-1.76,0-3.22-.32-4.37-.96s-2.01-1.53-2.58-2.66c-.57-1.13-.85-2.42-.85-3.85v-13.45h5.88v13.25c0,.78.22,1.39.67,1.81.45.42,1.05.64,1.81.64.41,0,.9-.05,1.45-.16.55-.11,1.03-.27,1.42-.49v5.19c-.41.22-.95.39-1.6.51-.65.12-1.26.18-1.83.18Z"/>
    </g>
  </g>
</svg>