<?xml version="1.0" encoding="UTF-8"?>
<svg id="Layer_2" data-name="Layer 2" xmlns="http://www.w3.org/2000/svg" xmlns:xlink="http://www.w3.org/1999/xlink" viewBox="0 0 270.52 40">
  <defs>
    <style>
      .cls-1 {
        fill: url(#linear-gradient-4);
      }

      .cls-2 {
        fill: url(#linear-gradient-3);
      }

      .cls-3 {
        fill: url(#linear-gradient-2);
      }

      .cls-4 {
        fill: url(#linear-gradient);
      }

      .cls-5 {
        fill: #fff;
      }

      .cls-6 {
        fill: #9be183;
      }

      .cls-7 {
        fill: #1dc2c6;
      }
    </style>
    <linearGradient id="linear-gradient" x1="33.56" y1="169.26" x2="6.9" y2="160.54" gradientTransform="translate(0 174.37) scale(1 -1)" gradientUnits="userSpaceOnUse">
      <stop offset=".64" stop-color="#f16930"/>
      <stop offset=".96" stop-color="#f8c70e"/>
    </linearGradient>
    <linearGradient id="linear-gradient-2" x1="10.75" y1="146.64" x2="22.75" y2="143.14" gradientTransform="translate(0 174.37) scale(1 -1)" gradientUnits="userSpaceOnUse">
      <stop offset="0" stop-color="#9be183"/>
      <stop offset="1" stop-color="#256b52"/>
    </linearGradient>
    <linearGradient id="linear-gradient-3" x1="32.84" y1="144.49" x2="30" y2="152.15" gradientTransform="translate(0 174.37) scale(1 -1)" gradientUnits="userSpaceOnUse">
      <stop offset="0" stop-color="#1dc2c6"/>
      <stop offset="1" stop-color="#23336b"/>
    </linearGradient>
    <linearGradient id="linear-gradient-4" x1="33.33" y1="158.51" x2="27.59" y2="164.9" gradientTransform="translate(0 174.37) scale(1 -1)" gradientUnits="userSpaceOnUse">
      <stop offset=".24" stop-color="#1dc1c5"/>
      <stop offset="1" stop-color="#9ce182"/>
    </linearGradient>
  </defs>
  <g id="Layer_1-2" data-name="Layer 1">
    <g>
      <g>
        <path class="cls-4" d="M23.32,7.48c-.61-1.47-1.5-2.81-2.63-3.93s-2.46-2.02-3.93-2.63C15.29.31,13.71,0,12.12,0,11.76,0,11.41.02,11.05.05c-.11.01-.21.02-.32.04-.26.03-.52.07-.78.12-.1.02-.21.04-.31.06-.35.07-.69.16-1.03.26,0,0,0,0,0,0-.34.1-.68.23-1.01.36-.04.01-.07.02-.11.04-.06.03-.12.06-.18.08-.24.11-.48.22-.72.34-.09.05-.19.1-.28.15-.31.17-.62.35-.92.55,0,0,0,0,0,0-.3.2-.58.41-.86.63-.08.07-.16.14-.24.21-.2.17-.4.35-.59.53-.05.05-.1.09-.15.13-.03.03-.05.06-.08.09-.25.25-.49.52-.72.79,0,0,0,0,0,0-.22.27-.43.56-.63.85-.06.09-.12.18-.17.27-.14.22-.28.45-.41.68-.05.09-.1.18-.15.28-.16.32-.32.63-.46.97h0c-.14.34-.25.67-.36,1.01-.03.1-.06.2-.09.3-.07.25-.14.51-.19.77-.02.1-.05.21-.07.31-.06.35-.12.7-.16,1.05H.06c-.04.36-.05.72-.05,1.08,0,.04,0,.08,0,.12h0c0,.79.07,1.58.23,2.36.47,2.35,1.62,4.51,3.32,6.21,1.69,1.69,3.86,2.85,6.21,3.32,2.35.47,4.79.23,7-.69,2.22-.92,4.11-2.47,5.44-4.46,1.33-1.99,2.04-4.34,2.04-6.73,0-1.59-.31-3.17-.92-4.64h0ZM15.15,14.14c-.4.6-.97,1.06-1.63,1.34-.66.28-1.4.35-2.1.21-.71-.14-1.35-.49-1.86-.99-.51-.51-.86-1.16-.99-1.86-.05-.27-.07-.55-.06-.83,0-.16.02-.32.05-.47.01-.06.02-.12.03-.19.05-.21.1-.42.19-.61.08-.2.19-.39.3-.57.03-.05.07-.1.11-.15.09-.13.19-.25.3-.37.04-.05.09-.09.13-.14.31-.3.67-.54,1.06-.71.06-.02.12-.05.18-.07.15-.06.3-.1.46-.14.06-.01.12-.03.18-.04.21-.04.42-.06.64-.06.48,0,.95.09,1.39.28.44.18.84.45,1.18.79.34.34.6.74.79,1.18.18.44.28.91.28,1.39,0,.72-.21,1.42-.61,2.02h0Z"/>
        <path class="cls-3" d="M22.2,34.61c1.33-1.99,2.04-4.34,2.04-6.73h-8.48c0,.72-.21,1.42-.61,2.02-.4.6-.97,1.06-1.63,1.34-.66.27-1.4.35-2.1.21s-1.35-.49-1.86-.99c-.51-.51-.85-1.16-.99-1.86-.14-.71-.07-1.44.21-2.1.28-.66.74-1.23,1.34-1.63.6-.4,1.3-.61,2.02-.61h0v-8.49h0c-2.4,0-4.74.71-6.73,2.04-.93.62-1.76,1.36-2.48,2.2-.82.96-1.5,2.06-1.99,3.24C0,25.46-.23,27.89.23,30.24c.47,2.35,1.62,4.51,3.32,6.21,1.69,1.69,3.85,2.85,6.21,3.32,2.35.47,4.79.23,7-.69,2.22-.92,4.11-2.47,5.44-4.46h0Z"/>
        <path class="cls-2" d="M27.88,15.76c3.22,0,6.3,1.28,8.57,3.55,2.27,2.27,3.55,5.36,3.55,8.57s-1.28,6.3-3.55,8.57c-2.27,2.27-5.36,3.55-8.57,3.55v-8.49c.96,0,1.89-.38,2.57-1.06s1.07-1.61,1.07-2.57-.38-1.89-1.07-2.57c-.68-.68-1.61-1.07-2.57-1.07v-8.48Z"/>
        <path class="cls-7" d="M27.88,40c-3.22,0-6.3-1.28-8.57-3.55-2.27-2.27-3.55-5.36-3.55-8.57s1.28-6.3,3.55-8.57c2.27-2.27,5.36-3.55,8.57-3.55v8.48c-.96,0-1.89.38-2.57,1.07-.68.68-1.07,1.61-1.07,2.57s.38,1.89,1.07,2.57,1.61,1.06,2.57,1.06v8.49Z"/>
        <path class="cls-6" d="M24.24,12.12h-8.48s0,.06,0,.09c-.01.44-.1.89-.28,1.3-.09.22-.2.43-.34.63-.02.02-.03.05-.05.07-.26.36-.58.68-.95.93-.2.13-.41.24-.63.34-.03.01-.06.02-.08.03-.41.16-.86.24-1.31.24v8.49c1.6,0,3.18-.32,4.64-.92.05-.02.09-.04.13-.06.68-.29,1.34-.65,1.96-1.06,1.33-.89,2.46-2.03,3.34-3.34.03-.04.05-.08.08-.12.41-.62.75-1.28,1.04-1.97.61-1.48.92-3.05.92-4.64h0Z"/>
        <path class="cls-1" d="M15.76,12.12c0-2.4.71-4.74,2.04-6.73,1.33-1.99,3.23-3.55,5.44-4.46C25.45,0,27.89-.23,30.24.23c2.35.47,4.51,1.62,6.21,3.32s2.85,3.86,3.32,6.21c.47,2.35.23,4.79-.69,7-.92,2.22-2.47,4.11-4.46,5.44-1.99,1.33-4.34,2.04-6.73,2.04v-8.49c.72,0,1.42-.21,2.02-.61.6-.4,1.06-.97,1.34-1.63.27-.66.35-1.4.21-2.1-.14-.7-.49-1.35-.99-1.86-.51-.51-1.16-.86-1.86-.99-.7-.14-1.44-.07-2.1.21-.66.27-1.23.74-1.63,1.34-.4.6-.61,1.3-.61,2.02h-8.49,0Z"/>
      </g>
      <g>
        <path class="cls-5" d="M64.19,31.47c-1.65,0-3.18-.29-4.59-.88-1.4-.59-2.63-1.4-3.69-2.45-1.06-1.04-1.88-2.26-2.46-3.66-.59-1.39-.88-2.89-.88-4.5s.29-3.11.88-4.5c.59-1.39,1.41-2.61,2.46-3.66s2.28-1.86,3.69-2.45c1.4-.59,2.93-.88,4.59-.88,1.31,0,2.57.22,3.8.67,1.23.45,2.33,1.09,3.31,1.94.98.85,1.73,1.88,2.25,3.1l-4.93,2.74c-.46-.83-1.03-1.49-1.73-1.99-.7-.5-1.69-.75-2.97-.75-.78,0-1.49.14-2.12.42-.63.28-1.17.68-1.63,1.19-.46.51-.81,1.12-1.04,1.83-.24.71-.36,1.49-.36,2.33s.12,1.63.36,2.33c.24.71.58,1.32,1.03,1.83.45.51.99.91,1.63,1.19.64.28,1.35.42,2.14.42,1.28,0,2.28-.26,3-.77.72-.51,1.28-1.17,1.7-1.97l4.93,2.74c-.52,1.2-1.27,2.22-2.25,3.08s-2.08,1.51-3.31,1.96c-1.23.45-2.5.67-3.8.67Z"/>
        <path class="cls-5" d="M81.22,30.98h-5.88v-9.04c0-1.46.28-2.77.85-3.95.57-1.17,1.42-2.11,2.58-2.81s2.61-1.04,4.37-1.04c.57,0,1.13.05,1.68.15.56.1,1.04.23,1.45.41v5.65c-.39-.22-.82-.38-1.27-.49s-.89-.16-1.31-.16c-.76,0-1.37.21-1.81.64-.45.42-.67,1.03-.67,1.81v8.84Z"/>
        <path class="cls-5" d="M96.89,31.44c-1.74,0-3.3-.36-4.68-1.09-1.38-.73-2.47-1.75-3.26-3.07-.79-1.32-1.19-2.87-1.19-4.65,0-1.57.36-3,1.09-4.31s1.75-2.35,3.05-3.13,2.82-1.18,4.54-1.18,3.3.39,4.54,1.18,2.18,1.81,2.82,3.08c.64,1.27.96,2.64.96,4.1v1.47h-12.27l.82-1.04c0,.74.15,1.39.44,1.94.29.55.7.98,1.22,1.27.52.29,1.14.44,1.86.44.78,0,1.47-.2,2.07-.59.6-.39,1.04-.9,1.32-1.53l4.5,2.25c-.7,1.52-1.72,2.71-3.07,3.57-1.35.86-2.94,1.29-4.77,1.29ZM93.66,20.8h5.25c-.09-.3-.24-.59-.47-.87-.23-.27-.52-.49-.87-.65-.35-.16-.75-.24-1.21-.24s-.87.08-1.24.24c-.37.16-.67.38-.91.64-.24.26-.42.56-.55.88Z"/>
        <path class="cls-5" d="M113.99,31.5c-.65,0-1.32-.14-1.99-.42-.67-.28-1.27-.71-1.78-1.29-.51-.58-.88-1.31-1.09-2.2l-3.07-12.92h5.48l2.68,11.85c-.02-.13-.07-.23-.13-.29-.06-.07-.12-.1-.16-.1s-.1.03-.16.1c-.07.06-.12.16-.16.29l2.19-8.45c.35-1.31.9-2.28,1.66-2.94.76-.65,1.71-.98,2.84-.98s2.1.32,2.84.96c.74.64,1.27,1.6,1.6,2.89l2.19,8.52c-.02-.11-.07-.2-.15-.26-.08-.07-.14-.1-.18-.1-.02,0-.07.03-.13.1-.07.07-.12.15-.16.26l2.55-11.85h5.42l-2.87,12.92c-.2.89-.55,1.63-1.08,2.2-.52.58-1.12,1.01-1.79,1.29-.68.28-1.34.42-1.99.42-1.02,0-1.93-.33-2.72-.98-.79-.65-1.35-1.63-1.68-2.94l-2.25-8.81c.04.15.11.26.2.33.09.06.15.1.2.1s.11-.03.21-.1c.1-.07.16-.16.18-.29l-2.22,8.78c-.33,1.31-.89,2.29-1.7,2.94-.81.65-1.72.98-2.74.98Z"/>
        <path class="cls-5" d="M147.18,31.47c-1.65,0-3.18-.29-4.58-.88s-2.63-1.4-3.69-2.45c-1.06-1.04-1.88-2.26-2.46-3.66-.59-1.39-.88-2.89-.88-4.5s.29-3.11.88-4.5c.59-1.39,1.41-2.61,2.46-3.66s2.29-1.86,3.69-2.45,2.93-.88,4.58-.88c1.31,0,2.57.22,3.8.67,1.23.45,2.33,1.09,3.31,1.94.98.85,1.73,1.88,2.25,3.1l-4.93,2.74c-.46-.83-1.03-1.49-1.73-1.99s-1.69-.75-2.97-.75c-.78,0-1.49.14-2.12.42-.63.28-1.17.68-1.63,1.19-.46.51-.81,1.12-1.04,1.83-.24.71-.36,1.49-.36,2.33s.12,1.63.36,2.33.58,1.32,1.03,1.83c.45.51.99.91,1.63,1.19.64.28,1.35.42,2.14.42,1.28,0,2.28-.26,3-.77.72-.51,1.28-1.17,1.7-1.97l4.93,2.74c-.52,1.2-1.27,2.22-2.25,3.08s-2.08,1.51-3.31,1.96c-1.23.45-2.5.67-3.8.67Z"/>
        <path class="cls-5" d="M166.67,31.47c-1.7,0-3.22-.39-4.57-1.17-1.35-.78-2.42-1.83-3.21-3.15-.79-1.32-1.19-2.77-1.19-4.36s.4-3.03,1.19-4.34c.79-1.31,1.87-2.35,3.21-3.13,1.35-.78,2.87-1.17,4.57-1.17s3.23.39,4.59,1.17c1.36.78,2.43,1.83,3.21,3.13.78,1.31,1.17,2.75,1.17,4.34s-.39,3.04-1.17,4.36-1.86,2.37-3.21,3.15c-1.36.78-2.89,1.17-4.59,1.17ZM166.67,25.96c.63,0,1.17-.14,1.63-.42s.82-.66,1.08-1.14c.26-.48.39-1,.39-1.57s-.13-1.12-.39-1.6c-.26-.48-.62-.86-1.08-1.14-.46-.28-1-.42-1.63-.42s-1.15.14-1.62.42c-.47.28-.83.66-1.09,1.14-.26.48-.39,1.01-.39,1.6s.13,1.09.39,1.57c.26.48.63.86,1.09,1.14s1.01.42,1.62.42Z"/>
        <path class="cls-5" d="M187.1,19.89c-.72,0-1.29.17-1.73.52-.44.35-.75.8-.95,1.37-.2.57-.29,1.2-.29,1.89v7.31h-5.88v-8.03c0-1.61.32-3.08.95-4.41.63-1.33,1.6-2.39,2.91-3.18,1.31-.79,2.97-1.19,4.99-1.19s3.69.4,4.99,1.19c1.31.79,2.27,1.86,2.91,3.18.63,1.33.95,2.8.95,4.41v8.03h-5.88v-7.31c0-.7-.1-1.33-.29-1.89-.2-.57-.51-1.02-.95-1.37s-1.01-.52-1.73-.52Z"/>
        <path class="cls-5" d="M208.05,19.89c-.72,0-1.29.17-1.73.52-.44.35-.75.8-.95,1.37-.2.57-.29,1.2-.29,1.89v7.31h-5.88v-8.03c0-1.61.32-3.08.95-4.41.63-1.33,1.6-2.39,2.91-3.18,1.31-.79,2.97-1.19,4.99-1.19s3.69.4,4.99,1.19c1.31.79,2.27,1.86,2.91,3.18.63,1.33.95,2.8.95,4.41v8.03h-5.88v-7.31c0-.7-.1-1.33-.29-1.89-.2-.57-.51-1.02-.95-1.37s-1.01-.52-1.73-.52Z"/>
        <path class="cls-5" d="M228.64,31.44c-1.74,0-3.3-.36-4.68-1.09-1.38-.73-2.47-1.75-3.26-3.07-.79-1.32-1.19-2.87-1.19-4.65,0-1.57.36-3,1.09-4.31.73-1.31,1.75-2.35,3.05-3.13s2.82-1.18,4.54-1.18,3.3.39,4.54,1.18,2.18,1.81,2.82,3.08c.64,1.27.96,2.64.96,4.1v1.47h-12.27l.82-1.04c0,.74.15,1.39.44,1.94.29.55.7.98,1.22,1.27.52.29,1.14.44,1.86.44.78,0,1.47-.2,2.07-.59.6-.39,1.04-.9,1.32-1.53l4.5,2.25c-.7,1.52-1.72,2.71-3.07,3.57-1.35.86-2.94,1.29-4.77,1.29ZM225.41,20.8h5.25c-.09-.3-.24-.59-.47-.87-.23-.27-.52-.49-.87-.65-.35-.16-.75-.24-1.21-.24s-.87.08-1.24.24c-.37.16-.67.38-.91.64-.24.26-.42.56-.55.88Z"/>
        <path class="cls-5" d="M247.77,31.44c-1.26.02-2.44-.2-3.54-.65-1.1-.46-2.05-1.08-2.86-1.88-.81-.79-1.44-1.72-1.89-2.77-.46-1.05-.68-2.17-.68-3.35s.23-2.29.68-3.34c.46-1.06,1.09-1.98,1.89-2.77.8-.79,1.76-1.41,2.86-1.86,1.1-.45,2.28-.66,3.54-.64,1.63.02,3.15.42,4.55,1.19,1.4.77,2.48,2,3.21,3.67l-4.86,2.61c-.26-.57-.64-1.03-1.14-1.4-.5-.37-1.09-.56-1.76-.56-.61,0-1.15.14-1.62.41-.47.27-.83.64-1.09,1.11-.26.47-.39,1-.39,1.58s.13,1.09.39,1.57c.26.48.63.86,1.09,1.14.47.28,1.01.42,1.62.42.67,0,1.26-.19,1.76-.57.5-.38.88-.84,1.14-1.39l4.86,2.61c-.74,1.68-1.81,2.9-3.21,3.67-1.4.77-2.92,1.17-4.55,1.19Z"/>
        <path class="cls-5" d="M270.52,19.56h-14v-4.9h14v4.9ZM267.09,31.5c-1.76,0-3.22-.32-4.37-.96s-2.01-1.53-2.58-2.66c-.57-1.13-.85-2.42-.85-3.85v-13.45h5.88v13.25c0,.78.22,1.39.67,1.81.45.42,1.05.64,1.81.64.41,0,.9-.05,1.45-.16.55-.11,1.03-.27,1.42-.49v5.19c-.41.22-.95.39-1.6.51-.65.12-1.26.18-1.83.18Z"/>
      </g>
    </g>
  </g>
</svg>